<svg xmlns="http://www.w3.org/2000/svg" viewBox="0 0 24 21.95"><defs><style>.cls-1{fill:#e9504f;}.cls-2{fill:#fff;}</style></defs><title>六合 (2)</title><g id="图层_2" data-name="图层 2"><g id="图层_1-2" data-name="图层 1"><g id="六合"><path id="矩形_471" data-name="矩形 471" class="cls-1" d="M0,0H24V22Z"/><path class="cls-2" d="M13.11,4.34a7.36,7.36,0,0,1-3.55.89L9.5,4.66a6.44,6.44,0,0,0,3.39-.8Zm-.76-2.69L16.94,6l-.35.37L12,2ZM14.69,5.5A23.24,23.24,0,0,1,14,9l-.55-.09a23.5,23.5,0,0,0,.76-3.53ZM15.43,2a11.71,11.71,0,0,1,.22,1.86l-.53,0A9.21,9.21,0,0,0,14.94,2Z"/><path class="cls-2" d="M20.25,11.5l-2,2.09-.36-.34.29-.31-2.54-2.4-.29.31L15,10.51l2-2.09ZM16,10.18l2.54,2.4,1-1.07L17,9.11Zm5.25-2.75a10.14,10.14,0,0,0,.58,3.94l-.54.17a10.18,10.18,0,0,1-.5-3.9,10.18,10.18,0,0,1-3.94-.28L17,6.82a10.37,10.37,0,0,0,4,.36Zm-3,.25,2.68,2.54-.33.35L17.89,8Z"/></g></g></g></svg>